# xmcd
#
# Track frame offsets: 
#        150
#        19631
#        36566
#        59598
#        75943
#        86836
#        105784
#        116771
#        133526
#        147674
#        160247
#        185978
#        205041
#        223348
#
# Disc length: 3122 seconds
#
# Revision: 0
# Processed by: cddbd v1.5.2PL0 Copyright (c) Steve Scherf et al.
# Submitted via: ExactAudioCopyFreeDBPlugin 1.0
#
DISCID=cd0c300e
DTITLE=Scott H. Biram - Nothin' But Blood
DYEAR=2014
DGENRE=Blues
TTITLE0=Slow and Easy
TTITLE1=Gotta Get To Heaven
TTITLE2=Alcohol Blues
TTITLE3=Never Comin' Home
TTITLE4=Only Whiskey
TTITLE5=Jack Of Diamonds
TTITLE6=Nam Weed
TTITLE7=Backdoor Man
TTITLE8=Church Point Girls
TTITLE9=I'm Troubled
TTITLE10=Around The Bend
TTITLE11=Amazing Grace
TTITLE12=When I Die
TTITLE13=John The Revelator
EXTD=
EXTT0=
EXTT1=
EXTT2=
EXTT3=
EXTT4=
EXTT5=
EXTT6=
EXTT7=
EXTT8=
EXTT9=
EXTT10=
EXTT11=
EXTT12=
EXTT13=
PLAYORDER=
